<svg width="32" height="32" viewBox="0 0 32 32" fill="none" xmlns="http://www.w3.org/2000/svg">
<path d="M16.0013 29.3332C23.3651 29.3332 29.3346 23.3636 29.3346 15.9998C29.3346 8.63605 23.3651 2.6665 16.0013 2.6665C8.63752 2.6665 2.66797 8.63605 2.66797 15.9998C2.66797 23.3636 8.63752 29.3332 16.0013 29.3332Z" fill="white"/>
<rect x="9" y="10" width="14" height="12" fill="#291F1F"/>
<path d="M8 12L14.2 16.4286C15.2667 17.1905 16.7333 17.1905 17.8 16.4286L24 12" stroke="white" stroke-width="1.5" stroke-linecap="round" stroke-linejoin="round"/>
<path d="M21.9661 10.2104H10.2995C9.379 10.2104 8.63281 10.9566 8.63281 11.8771V20.2104C8.63281 21.1309 9.379 21.8771 10.2995 21.8771H21.9661C22.8866 21.8771 23.6328 21.1309 23.6328 20.2104V11.8771C23.6328 10.9566 22.8866 10.2104 21.9661 10.2104Z" stroke="white" stroke-width="1.5" stroke-linecap="round"/>
</svg>
