<svg width="32" height="32" viewBox="0 0 32 32" fill="none" xmlns="http://www.w3.org/2000/svg">
<path d="M16.0013 29.3332C23.3651 29.3332 29.3346 23.3636 29.3346 15.9998C29.3346 8.63605 23.3651 2.6665 16.0013 2.6665C8.63752 2.6665 2.66797 8.63605 2.66797 15.9998C2.66797 23.3636 8.63752 29.3332 16.0013 29.3332Z" fill="white"/>
<path d="M8.2171 15.8842C8.2171 15.8842 14.8838 13.1482 17.1959 12.1848C18.0822 11.7995 21.088 10.5663 21.088 10.5663C21.088 10.5663 22.4753 10.0269 22.3597 11.337C22.3211 11.8766 22.0128 13.7648 21.7046 15.8072C21.2421 18.6974 20.7412 21.8573 20.7412 21.8573C20.7412 21.8573 20.6641 22.7436 20.009 22.8977C19.3539 23.0519 18.2749 22.3583 18.0822 22.2041C17.928 22.0885 15.192 20.3544 14.1901 19.5066C13.9204 19.2754 13.6121 18.813 14.2286 18.2735C15.6159 17.0018 17.2729 15.4218 18.2749 14.4199C18.7373 13.9575 19.1997 12.8785 17.2729 14.1887C14.5369 16.0769 11.8394 17.8496 11.8394 17.8496C11.8394 17.8496 11.2229 18.2349 10.0668 17.8881C8.9107 17.5413 7.56196 17.0789 7.56196 17.0789C7.56196 17.0789 6.63715 16.5008 8.2171 15.8842Z" fill="#222222"/>
</svg>
