<svg width="32" height="32" viewBox="0 0 32 32" fill="none" xmlns="http://www.w3.org/2000/svg">
<rect x="8" y="9.33325" width="16" height="14.6667" fill="#222222"/>
<path d="M2.67332 29.3332L4.47599 22.7092C3.28817 20.673 2.66411 18.3572 2.66799 15.9998C2.66799 8.63584 8.63732 2.6665 16.0013 2.6665C23.3653 2.6665 29.3347 8.63584 29.3347 15.9998C29.3347 23.3638 23.3653 29.3332 16.0013 29.3332C13.645 29.337 11.3302 28.7134 9.29465 27.5265L2.67332 29.3332ZM11.1893 9.74384C11.0171 9.75453 10.8489 9.79988 10.6947 9.87717C10.55 9.95908 10.418 10.0615 10.3027 10.1812C10.1427 10.3318 10.052 10.4625 9.95465 10.5892C9.46187 11.2305 9.1968 12.0177 9.20132 12.8265C9.20399 13.4798 9.37465 14.1158 9.64132 14.7105C10.1867 15.9132 11.084 17.1865 12.2693 18.3665C12.5547 18.6505 12.8333 18.9358 13.1333 19.2012C14.6045 20.4965 16.3577 21.4306 18.2533 21.9292L19.012 22.0452C19.2587 22.0585 19.5053 22.0398 19.7533 22.0278C20.1416 22.0078 20.5208 21.9026 20.864 21.7198C21.0853 21.6025 21.1893 21.5438 21.3747 21.4265C21.3747 21.4265 21.432 21.3892 21.5413 21.3065C21.7213 21.1732 21.832 21.0785 21.9813 20.9225C22.092 20.8078 22.188 20.6732 22.2613 20.5198C22.3653 20.3025 22.4693 19.8878 22.512 19.5425C22.544 19.2785 22.5347 19.1345 22.5307 19.0452C22.5253 18.9025 22.4067 18.7545 22.2773 18.6918L21.5013 18.3438C21.5013 18.3438 20.3413 17.8385 19.6333 17.5158C19.5587 17.4833 19.4787 17.4648 19.3973 17.4612C19.3061 17.4518 19.2139 17.4621 19.127 17.4913C19.0401 17.5205 18.9604 17.568 18.8933 17.6305V17.6278C18.8867 17.6278 18.7973 17.7038 17.8333 18.8718C17.778 18.9462 17.7018 19.0024 17.6144 19.0332C17.527 19.0641 17.4324 19.0683 17.3427 19.0452C17.2558 19.0219 17.1707 18.9925 17.088 18.9572C16.9227 18.8878 16.8653 18.8612 16.752 18.8118L16.7453 18.8092C15.9825 18.4761 15.2763 18.0263 14.652 17.4758C14.484 17.3292 14.328 17.1692 14.168 17.0145C13.6434 16.5122 13.1863 15.9439 12.808 15.3238L12.7293 15.1972C12.6728 15.1121 12.6271 15.0202 12.5933 14.9238C12.5427 14.7278 12.6747 14.5705 12.6747 14.5705C12.6747 14.5705 12.9987 14.2158 13.1493 14.0238C13.2748 13.8643 13.3918 13.6983 13.5 13.5265C13.6573 13.2732 13.7067 13.0132 13.624 12.8118C13.2507 11.8998 12.864 10.9918 12.4667 10.0905C12.388 9.91184 12.1547 9.78384 11.9427 9.7585C11.8707 9.7505 11.7987 9.7425 11.7267 9.73717C11.5476 9.72827 11.3682 9.73139 11.1893 9.74384Z" fill="white"/>
</svg>
