<svg width="64" height="64" viewBox="0 0 64 64" fill="none" xmlns="http://www.w3.org/2000/svg">
<rect width="64" height="64" rx="32" fill="white"/>
<path d="M32.7078 20.293L41.7078 29.293C41.8955 29.4806 42.0009 29.7351 42.0009 30.0005C42.0009 30.2659 41.8955 30.5203 41.7078 30.708C41.5202 30.8956 41.2657 31.001 41.0003 31.001C40.7349 31.001 40.4805 30.8956 40.2928 30.708L33.0003 23.4142V43.0005C33.0003 43.2657 32.895 43.5201 32.7074 43.7076C32.5199 43.8951 32.2655 44.0005 32.0003 44.0005C31.7351 44.0005 31.4807 43.8951 31.2932 43.7076C31.1057 43.5201 31.0003 43.2657 31.0003 43.0005V23.4142L23.7078 30.708C23.5202 30.8956 23.2657 31.001 23.0003 31.001C22.7349 31.001 22.4805 30.8956 22.2928 30.708C22.1052 30.5203 21.9998 30.2659 21.9998 30.0005C21.9998 29.7351 22.1052 29.4806 22.2928 29.293L31.2928 20.293C31.3857 20.2 31.496 20.1263 31.6174 20.0759C31.7388 20.0256 31.8689 19.9997 32.0003 19.9997C32.1317 19.9997 32.2619 20.0256 32.3833 20.0759C32.5047 20.1263 32.6149 20.2 32.7078 20.293Z" fill="#212121"/>
</svg>
