<svg width="68" height="68" viewBox="0 0 68 68" fill="none" xmlns="http://www.w3.org/2000/svg">
<circle cx="34" cy="34" r="24.25" stroke="white" stroke-width="1.5"/>
<path d="M34 20C34 20 25.1397 21.5408 22 21.5408V36.949C22.0049 38.0313 22.2185 39.103 22.6295 40.1077C23.0207 41.1013 23.5503 42.0372 24.2033 42.8889C24.8623 43.7439 25.6027 44.5358 26.4144 45.254C27.1639 45.9339 27.9521 46.5718 28.7751 47.1647C29.508 47.6795 30.267 48.1578 31.0492 48.5976C31.8361 49.0522 32.3948 49.368 32.7252 49.5144L33.5121 49.8919C33.6645 49.9631 33.8312 50 34 50C34.1688 50 34.3355 49.9631 34.4879 49.8919L35.2748 49.5144C35.6052 49.3603 36.1639 49.0522 36.9508 48.5976C37.733 48.1578 38.492 47.6795 39.2249 47.1647C40.0479 46.5718 40.8361 45.9339 41.5856 45.254C42.3973 44.5358 43.1377 43.7439 43.7967 42.8889C44.4497 42.0372 44.9793 41.1013 45.3705 40.1077C45.7815 39.103 45.9951 38.0313 46 36.949V21.5408C42.8603 21.5639 34 20 34 20Z" stroke="white" stroke-width="1.5" stroke-linecap="round" stroke-linejoin="round"/>
<path d="M39.8516 31.9357L36.5813 34.4321L37.8714 38.4439C37.8927 38.5203 37.891 38.6018 37.8664 38.6771C37.8419 38.7525 37.7957 38.818 37.7342 38.8647C37.6727 38.9114 37.5989 38.937 37.523 38.938C37.4471 38.9389 37.3727 38.9152 37.3102 38.8701L34.0012 36.4278L30.7245 38.931C30.6849 38.9602 30.6401 38.9807 30.5929 38.9915C30.5456 39.0022 30.4967 39.0028 30.4492 38.9933C30.4017 38.9839 30.3564 38.9645 30.3162 38.9364C30.2759 38.9082 30.2415 38.8719 30.2149 38.8295C30.1858 38.7818 30.1663 38.7285 30.1574 38.6727C30.1486 38.6168 30.1506 38.5597 30.1633 38.5048L31.4211 34.4997L28.1508 31.9966C28.0889 31.951 28.0426 31.8858 28.0185 31.8107C27.9944 31.7355 27.9938 31.6542 28.0169 31.5787C28.0399 31.5032 28.0854 31.4374 28.1466 31.3908C28.2078 31.3443 28.2816 31.3195 28.3572 31.32H32.4015L33.6593 27.3082C33.6728 27.2272 33.7114 27.1532 33.7692 27.0977C33.827 27.0422 33.9007 27.0083 33.9788 27.0013C34.0569 26.9944 34.135 27.0147 34.2009 27.0592C34.2668 27.1038 34.3168 27.1699 34.3431 27.2473L35.6009 31.2524H39.6452C39.6926 31.2533 39.7394 31.2639 39.7829 31.2838C39.8264 31.3036 39.8658 31.3323 39.8987 31.3681C39.9317 31.4039 39.9576 31.4462 39.9749 31.4925C39.9923 31.5388 40.0008 31.5882 39.9999 31.638C40.0003 31.6965 39.9869 31.7543 39.9611 31.8062C39.9352 31.8581 39.8976 31.9025 39.8516 31.9357Z" stroke="white" stroke-width="1.5" stroke-linecap="round" stroke-linejoin="round"/>
</svg>
