<svg width="68" height="68" viewBox="0 0 68 68" fill="none" xmlns="http://www.w3.org/2000/svg">
<path d="M34.9106 51.1319C34.7941 51.0298 34.6763 50.9296 34.5641 50.8211C34.5635 50.8206 34.5627 50.8207 34.5624 50.8214V50.8214C34.5621 50.822 34.5612 50.8222 34.5607 50.8217C34.5596 50.8208 34.5585 50.8198 34.5574 50.8189C34.5552 50.817 34.5518 50.8178 34.5506 50.8204L31.7599 57.283L31.7481 57.317C31.7047 57.4428 31.7182 57.5813 31.7853 57.6964V57.6964C31.8618 57.8222 31.9857 57.897 32.124 57.897V57.897C32.1674 57.897 32.2106 57.8899 32.2518 57.8761L33.9523 57.3043C34.4594 57.1338 35.0108 57.3926 35.2037 57.8916L35.915 59.7317C35.9805 59.893 36.1226 59.9994 36.2865 59.9994C36.4431 59.9994 36.5851 59.901 36.6506 59.7473L38.8109 54.7457L39.4489 53.2769C39.4492 53.2761 39.4487 53.2752 39.4479 53.275V53.275C39.447 53.2749 39.4466 53.274 39.4469 53.2732L39.4486 53.2692C39.4499 53.2663 39.4481 53.263 39.4449 53.2625C37.7461 52.9991 36.1935 52.239 34.9106 51.1319Z" stroke="#FFFDFD" stroke-width="1.5"/>
<path d="M47.8037 52.2827L47.1773 50.8257C47.177 50.825 47.1762 50.8248 47.1756 50.8253V50.8253C47.175 50.8258 47.1739 50.8257 47.1736 50.8249L47.1719 50.821C47.1707 50.8183 47.1672 50.8176 47.1651 50.8196C45.9099 52.0141 44.356 52.85 42.6487 53.1878C42.5289 53.2105 42.4098 53.2372 42.2889 53.2548C42.2881 53.2549 42.2876 53.2557 42.288 53.2565V53.2565C42.2883 53.2572 42.2878 53.258 42.287 53.2582C42.2857 53.2584 42.2843 53.2587 42.2829 53.259C42.2801 53.2596 42.2785 53.2626 42.2796 53.2653L45.0764 59.7477C45.142 59.9015 45.2839 59.9998 45.4404 59.9998C45.6043 59.9998 45.7462 59.8935 45.8117 59.7322L46.5229 57.8917C46.7156 57.3928 47.2667 57.1339 47.7737 57.304L49.4845 57.8778L49.4943 57.8809C49.5288 57.8919 49.5648 57.8975 49.6011 57.8975V57.8975C49.7393 57.8975 49.8631 57.8227 49.9395 57.6969V57.6969C50.0088 57.557 50.0131 57.3937 49.9511 57.2504L47.8037 52.2827Z" stroke="#FFFDFD" stroke-width="1.5"/>
<path d="M40.878 36.4639C44.711 36.4639 47.8185 39.5713 47.8185 43.4043C47.8185 47.2406 44.7112 50.3448 40.878 50.3448C37.0447 50.3448 33.9375 47.2407 33.9375 43.4043C33.9375 39.5713 37.0449 36.4639 40.878 36.4639Z" stroke="#FFFDFD" stroke-width="1.5"/>
<path d="M51 41.0682V13C51 10.7909 49.2091 9 47 9H21C18.7909 9 17 10.7909 17 13V46.7273C17 48.9364 18.7909 50.7273 21 50.7273H30.9091" stroke="white" stroke-width="1.5"/>
<path d="M24.7266 18.2725H43.272" stroke="white" stroke-width="1.5"/>
<path d="M24.7266 23.6816H43.272" stroke="white" stroke-width="1.5"/>
<path d="M24.7266 29.0908H43.272" stroke="white" stroke-width="1.5"/>
</svg>
