<svg width="24" height="24" viewBox="0 0 24 24" fill="none" xmlns="http://www.w3.org/2000/svg">
<path d="M12 22C17.5228 22 22 17.5228 22 12C22 6.47716 17.5228 2 12 2C6.47716 2 2 6.47716 2 12C2 17.5228 6.47716 22 12 22Z" fill="white"/>
<path d="M15.1458 18C10.5089 18 6.75 14.2411 6.75 9.60417C6.75 9.39496 6.75765 9.18755 6.77269 8.98219C6.78995 8.7465 6.79858 8.62866 6.86034 8.52139C6.91149 8.43255 7.00215 8.34829 7.09449 8.30376C7.20598 8.25 7.33602 8.25 7.59609 8.25H9.12213C9.34084 8.25 9.45019 8.25 9.54393 8.28599C9.62673 8.31779 9.70046 8.36943 9.75864 8.43639C9.82451 8.51218 9.86188 8.61495 9.93662 8.82049L10.5683 10.5575C10.6552 10.7967 10.6987 10.9162 10.6913 11.0297C10.6848 11.1297 10.6507 11.226 10.5927 11.3077C10.527 11.4005 10.4179 11.4659 10.1997 11.5969L9.45833 12.0417C10.1094 13.4765 11.273 14.6416 12.7083 15.2917L13.1532 14.5503C13.2841 14.3321 13.3495 14.223 13.4422 14.1573C13.524 14.0993 13.6203 14.0652 13.7203 14.0587C13.8338 14.0513 13.9534 14.0948 14.1925 14.1817L15.9295 14.8134C16.135 14.8881 16.2378 14.9255 16.3136 14.9914C16.3806 15.0495 16.4322 15.1233 16.464 15.2061C16.5 15.2998 16.5 15.4092 16.5 15.6279V17.1539C16.5 17.414 16.5 17.544 16.4462 17.6555C16.4017 17.7479 16.3175 17.8385 16.2286 17.8897C16.1213 17.9514 16.0035 17.96 15.7678 17.9773C15.5624 17.9924 15.355 18 15.1458 18Z" fill="#222222"/>
<path d="M16.25 10.0833V8.25M16.25 8.25H14.4167M16.25 8.25L13.5 11" stroke="#222222" stroke-width="0.75" stroke-linecap="round" stroke-linejoin="round"/>
</svg>
