<svg width="68" height="68" viewBox="0 0 68 68" fill="none" xmlns="http://www.w3.org/2000/svg">
<path d="M59.3047 52.8175C59.2691 52.8175 59.2333 52.8147 59.1974 52.8091L42.7681 50.2422L26.3387 52.8091C26.3376 52.8091 26.3362 52.8094 26.3348 52.8097C26.3343 52.8097 26.334 52.8097 26.3329 52.8099C26.3323 52.8102 26.3318 52.8105 26.331 52.8102C26.3304 52.8102 26.329 52.8102 26.329 52.8102C26.3287 52.8105 26.3282 52.8111 26.3273 52.8105C26.3265 52.8108 26.3257 52.8108 26.3243 52.8108C26.3237 52.8105 26.3232 52.8111 26.3226 52.8111C26.3218 52.8111 26.3215 52.8111 26.3209 52.8113C26.3204 52.8113 26.3198 52.8116 26.3193 52.8113C26.3187 52.8116 26.3182 52.8116 26.3173 52.8116C26.2956 52.8144 26.2739 52.8161 26.2522 52.8166C26.252 52.8169 26.2511 52.8166 26.2506 52.8166C26.2503 52.8169 26.2495 52.8166 26.2489 52.8166C26.2484 52.8166 26.2478 52.8166 26.2472 52.8166C26.2453 52.8166 26.2442 52.8158 26.242 52.8166C26.2417 52.8166 26.2417 52.8166 26.2403 52.8166C26.2392 52.8166 26.2386 52.8163 26.2383 52.8166C26.2381 52.8166 26.2372 52.8166 26.2367 52.8166C26.2364 52.8166 26.2356 52.8166 26.2347 52.8166C26.2339 52.8166 26.2331 52.8166 26.2322 52.8166C26.2314 52.8166 26.23 52.8166 26.23 52.8166C26.2289 52.8166 26.2283 52.8163 26.2281 52.8166C26.2275 52.8166 26.2272 52.8166 26.2264 52.8166C26.2258 52.8166 26.2253 52.8166 26.2244 52.8166C26.2239 52.8166 26.2233 52.8166 26.2228 52.8166C26.2217 52.8163 26.2197 52.8166 26.218 52.8166C26.2178 52.8166 26.2169 52.8166 26.2164 52.8166C26.2153 52.8172 26.2153 52.8166 26.2147 52.8166C26.2136 52.8169 26.2136 52.8166 26.213 52.8166C26.2119 52.8169 26.2116 52.8166 26.2111 52.8166C26.2119 52.8175 26.2066 52.8163 26.2044 52.8163C26.2041 52.8163 26.2036 52.8163 26.203 52.8163C26.203 52.8163 26.2019 52.8163 26.2014 52.8163H26.2011C26.2005 52.8161 26.1997 52.8161 26.1994 52.8163C26.1747 52.8152 26.1499 52.8124 26.1254 52.8088L9.58931 50.2252C9.24946 50.1724 9 49.8809 9 49.5383V15.6954C9 15.4924 9.08872 15.2994 9.24335 15.1673C9.3977 15.0352 9.60266 14.9776 9.80262 15.0085L26.2319 17.5757L42.6596 15.0087C42.6927 15.0035 42.7261 15.0007 42.76 15.0001C42.7603 14.9998 42.7608 15.0001 42.7617 15.0001C42.7619 14.9998 42.7625 15.0001 42.7633 15.0001C42.7642 14.9998 42.7644 15.0001 42.765 15.0001C42.7656 15.0001 42.7661 15.0001 42.7667 15.0001C42.7672 15.0001 42.7678 14.9998 42.7683 15.0001C42.7686 14.9998 42.7692 15.0001 42.77 15.0001C42.7703 14.9998 42.7711 15.0001 42.7717 15.0001C42.7722 15.0001 42.7722 14.9998 42.7733 15.0001C42.7742 15.0001 42.7745 15.0001 42.775 15.0001C42.7756 15.0001 42.7758 14.9998 42.7767 15.0001C42.777 15.0001 42.7775 15.0001 42.7781 15.0001C42.8114 15.0007 42.8445 15.0035 42.8774 15.0087L59.4118 17.5924C59.7503 17.6452 59.9997 17.937 59.9997 18.2793V52.1219C59.9997 52.3249 59.911 52.5179 59.7564 52.65C59.6301 52.7588 59.4694 52.8175 59.3047 52.8175ZM26.9269 44.7676V51.3095L42.0728 48.9431V40.5687C41.5861 40.4886 41.1458 40.3264 40.7482 40.082C38.9749 38.9924 38.4807 36.5155 37.9576 33.8932C37.3886 31.0409 36.7998 28.0913 34.6589 26.4538C31.3761 23.9436 28.3664 24.9848 27.2245 25.5491C27.1236 25.5992 27.0243 25.6512 26.9269 25.7054V33.4552C26.9559 33.4813 26.9848 33.5075 27.0137 33.5336C29.5935 35.867 32.804 38.771 29.6054 42.5636C28.7527 43.5742 27.8447 44.2842 26.9269 44.7676ZM43.4636 48.9431L58.6095 51.3095V18.8745L43.4636 16.5078V39.1895C43.7515 39.1492 44.0602 39.083 44.3903 38.991C50.6906 37.2353 50.8049 30.5559 50.7067 28.6667C50.5106 28.7073 50.3076 28.7287 50.0999 28.7287C48.4521 28.7287 47.1113 27.3882 47.1113 25.7402C47.1113 24.0921 48.4518 22.7516 50.0999 22.7516C51.7479 22.7516 53.0884 24.0921 53.0884 25.7402C53.0884 26.6443 52.6849 27.4558 52.0486 28.0042C52.0491 28.0084 52.0497 28.0126 52.0502 28.017C52.0619 28.1166 53.121 38.0012 44.7638 40.3303C44.3041 40.4585 43.871 40.5453 43.4639 40.5907L43.4636 48.9431ZM10.3905 48.9431L25.5364 51.3095V45.3352C22.4866 46.246 19.5807 45.0604 18.4941 44.5217C18.0369 44.9564 17.4189 45.2237 16.7398 45.2237C15.3353 45.2237 14.1929 44.0812 14.1929 42.6768C14.1929 41.2723 15.3353 40.1298 16.7398 40.1298C18.1442 40.1298 19.2867 41.2723 19.2867 42.6768C19.2867 42.9023 19.2572 43.1212 19.2019 43.3295C20.2137 43.8348 22.8446 44.8938 25.5361 43.8729V34.0701C24.0112 32.6732 22.6938 31.3132 22.6938 29.7127C22.6938 27.9698 23.7993 26.1601 25.5361 24.9386V18.8745L10.3905 16.5078V48.9431ZM16.7401 41.5204C16.1024 41.5204 15.5837 42.039 15.5837 42.6768C15.5837 43.3145 16.1024 43.8331 16.7401 43.8331C17.3778 43.8331 17.8964 43.3145 17.8964 42.6768C17.8964 42.039 17.3778 41.5204 16.7401 41.5204ZM26.9269 35.3436V43.1451C27.479 42.7685 28.0221 42.2838 28.5425 41.6669C30.5023 39.3431 29.3546 37.6324 26.9269 35.3436ZM30.1711 23.4636C32.0155 23.4636 33.8716 24.1013 35.5036 25.3494C38.0611 27.3051 38.7307 30.6607 39.3214 33.6212C39.7837 35.9376 40.22 38.1255 41.4765 38.8975C41.6562 39.0079 41.8547 39.0914 42.0731 39.1478V16.5078L26.9272 18.8745V24.1533C27.9701 23.6916 29.0689 23.4636 30.1711 23.4636ZM25.5364 26.7319C24.6298 27.6116 24.0847 28.6862 24.0847 29.713C24.0847 30.4705 24.7071 31.3012 25.5364 32.1459V26.7319ZM50.0999 24.1421C49.2188 24.1421 48.5018 24.8591 48.5018 25.7402C48.5018 26.6212 49.2188 27.3382 50.0999 27.3382C50.9809 27.3382 51.6979 26.6212 51.6979 25.7402C51.6979 24.8591 50.9809 24.1421 50.0999 24.1421Z" fill="white"/>
</svg>
